<?xml version="1.0" encoding="UTF-8" standalone="no"?>
<!DOCTYPE svg PUBLIC "-//W3C//DTD SVG 1.1//EN" "http://www.w3.org/Graphics/SVG/1.1/DTD/svg11.dtd">
<svg width="100%" height="100%" viewBox="0 0 600 600" version="1.1" xmlns="http://www.w3.org/2000/svg" xmlns:xlink="http://www.w3.org/1999/xlink" xml:space="preserve" xmlns:serif="http://www.serif.com/" style="fill-rule:evenodd;clip-rule:evenodd;stroke-linejoin:round;stroke-miterlimit:2;">
    <g transform="matrix(1.95035,0,0,0.651466,-141.135,58.8436)">
        <path d="M168.5,209L239,516L98,516L168.5,209Z" style="fill:rgb(216,118,7);"/>
    </g>
    <g transform="matrix(1.95035,0,0,0.651466,83.8652,58.8436)">
        <path d="M168.5,209L239,516L98,516L168.5,209Z" style="fill:rgb(216,118,7);"/>
    </g>
    <g transform="matrix(1.39276,0,0,0.396825,-96.2396,241.429)">
        <rect x="105" y="450" width="359" height="63" style="fill:rgb(188,86,10);"/>
    </g>
    <g transform="matrix(1.39276,0,0,0.396825,-96.2396,216.429)">
        <rect x="105" y="450" width="359" height="63" style="fill:rgb(10,112,188);"/>
    </g>
    <g transform="matrix(1.90603,0,0,0.781759,-43.0408,-8.38762)">
        <path d="M168.5,209L239,516L98,516L168.5,209Z" style="fill:rgb(188,86,10);"/>
    </g>
    <g transform="matrix(1.90603,0,0,0.781759,0.70922,-8.38762)">
        <path d="M168.5,209L239,516L98,516L168.5,209Z" style="fill:rgb(188,86,10);"/>
    </g>
</svg>
